<svg version="1.1" xmlns="http://www.w3.org/2000/svg" viewBox="0 0 894.5 494.865234375" width="894.5" height="494.865234375">
  <!-- svg-source:excalidraw -->
  
  <defs>
    <style>
      @font-face {
        font-family: "Virgil";
        src: url("https://excalidraw.com/Virgil.woff2");
      }
      @font-face {
        font-family: "Cascadia";
        src: url("https://excalidraw.com/Cascadia.woff2");
      }
    </style>
  </defs>
  <rect x="0" y="0" width="894.5" height="494.865234375" fill="#ffffff"></rect><g stroke-linecap="round"><g transform="translate(450.5 217.865234375) rotate(0 -1 133.5)"><path d="M0 0 C-0.33 44.5, -1.67 222.5, -2 267" stroke="#000000" stroke-width="1.5" fill="none" stroke-dasharray="8 9"></path></g></g><g stroke-linecap="round" transform="translate(364.75390625 104.130859375) rotate(0 75 58.5)"><path d="M0 0 C0 0, 0 0, 0 0 M0 0 C0 0, 0 0, 0 0 M0.16 7.02 C1.97 4.59, 2.31 2.9, 4.88 -0.41 M-0.56 6.41 C0.83 4.67, 2.17 3.77, 5.28 -0.01 M-0.58 10.8 C5.28 8.16, 7.58 2.79, 11.65 -1.35 M0.58 12.35 C2.44 9.03, 5 6.36, 10.38 -0.33 M-0.19 18.42 C4.84 12.52, 6.53 9.64, 17.02 1.74 M0.87 17.79 C4.88 10.83, 11.67 6.17, 15.3 0.31 M0.12 25.31 C5.94 18.16, 9.75 11.04, 22.54 0.59 M0.14 24.97 C6.86 17.02, 10.68 11.1, 21.92 0.29 M0.78 29.82 C10.65 18.87, 19.65 6.72, 24.82 -1.01 M-0.55 31.1 C7.86 21.34, 14.56 12.99, 25.28 0.45 M-2.08 36.54 C12.18 22.73, 21.36 11.09, 31.25 1.33 M-0.24 36.7 C11.43 22.23, 22.38 9.61, 32.73 -0.29 M1.04 44.31 C7.8 30.2, 17.88 21.51, 38.83 0.46 M1.1 41.86 C12.2 30.27, 22.25 17.26, 37.61 1.05 M-1.08 50.72 C12.34 33.85, 25.91 20.73, 43.33 1.75 M-0.31 48.43 C8.89 38.17, 18.45 27.38, 41.62 -0.65 M0.12 52.83 C16.15 34.18, 32.18 16.8, 45.92 -0.74 M-0.42 54.69 C12.42 40.89, 23.41 28.57, 46.62 -0.6 M-0.42 59.45 C20.05 38.88, 42.34 13.25, 54.26 -0.15 M0.49 61.32 C15.45 41.91, 32.74 22.68, 52.92 -0.22 M-0.9 67.9 C10.36 51.47, 25.12 40.51, 57.16 -0.69 M-0.58 68.05 C15.29 49.43, 31 31.73, 59.09 0.87 M1.23 72.41 C21.71 46.94, 44.23 20.79, 65.69 -1.54 M-0.21 73.87 C23.36 45.48, 49.19 17.05, 64.31 0.69 M-0.81 80.57 C20.89 55.51, 39.83 34.77, 67.81 -0.68 M0.5 79.23 C16.05 62.22, 31.04 43.28, 68.16 0.93 M1.36 86.07 C21.02 60.41, 43.73 37.28, 73.48 1.2 M-0.38 84.68 C28.56 53.73, 54.27 23.45, 74.92 -1.17 M1.86 92.98 C33.19 56.23, 61.83 18.8, 81.32 0.84 M0.17 90.88 C21.76 67.76, 43.15 43.28, 79.4 -0.84 M1.03 96.48 C17.99 72.69, 42.67 50.32, 83.68 0.53 M-0.22 97.2 C33.14 58.7, 66.73 21.61, 85.26 0.09 M-0.62 103.33 C22.01 79.92, 42.97 54.29, 89.31 0.23 M-0.19 103.99 C25.29 74.15, 50.29 44.85, 90.8 -0.8 M-0.57 108.22 C22.23 86.53, 42.14 63.88, 96.49 -2.3 M0.41 110.71 C22.49 87.37, 43.47 62.18, 95.27 -0.6 M2.23 114.63 C36.12 75.23, 70.43 37.3, 99.61 0.64 M0.22 114.63 C21.91 89.82, 44.29 64.06, 100.72 0.83 M4.58 119.95 C33.75 83.76, 65.59 50.92, 106.34 -1.22 M2.75 119.8 C23.11 93.68, 43.97 69.12, 106.27 -1.18 M6.28 118.4 C36.57 84.66, 63.43 50.9, 112.22 0.06 M6.84 119.69 C48.07 72.64, 89.84 24.2, 111.95 -0.13 M12 117.36 C51.11 76.83, 89.73 32.47, 117.17 -0.58 M13.71 119.43 C46.62 79.29, 78.77 41.13, 116.34 0.25 M18.46 119.8 C46.23 88.27, 72.31 60.92, 123.34 -0.73 M17.33 119.96 C39.89 94.17, 60.19 70.56, 121.69 0.27 M24.27 120.05 C48.13 87.31, 73.16 60.53, 125.07 1.8 M23.47 119.72 C59.28 77.64, 94.66 38, 126.95 0.42 M28.53 120.05 C59.33 80.16, 93.41 42.88, 133.34 1.87 M29.45 118.58 C63.83 78.22, 98.82 36.56, 133.53 0.07 M36 117.36 C63.09 84.78, 90.35 55.64, 138.38 -0.82 M34.51 117.81 C60.72 88.53, 88.24 56.52, 136.99 -0.58 M39.7 117.4 C75.69 76.66, 113.05 32.83, 142.81 -1.7 M39.6 120 C64.2 91.55, 89.51 62.29, 143.47 -0.6 M46.02 117.47 C76.94 83.35, 109.35 43.1, 148.25 0.88 M45.71 118.98 C73.1 84.87, 101.37 54.62, 147.42 -0.34 M49.38 118.94 C81.24 83.13, 113.26 45.69, 150.52 4.02 M49.64 119.77 C72.31 92.83, 93.91 68.81, 151.97 2.74 M56.68 120.1 C77.6 92.81, 99.7 70.43, 153.48 8.59 M55.7 119.31 C90.43 77.53, 126.84 36.33, 152.04 8.23 M61.19 120.54 C94.42 83.99, 125.52 47.01, 150.86 14.64 M60.79 118.54 C87.9 86.09, 116.78 54.7, 151.27 13.95 M64.49 117.54 C95.38 83.68, 126.58 48.37, 152.22 18.24 M65.48 118.74 C101.41 80.86, 133.92 40.02, 153.24 20.7 M72.91 118.9 C94.6 91.96, 118.31 63.14, 153.49 27.18 M71.7 120.05 C92.84 94, 114.67 71.04, 151.13 25.64 M76.18 119.14 C89.89 100.21, 107.23 82.52, 153.48 33.8 M76.5 119.56 C103.71 89.22, 130.3 58.97, 151.48 33.01 M80.51 119.53 C107.77 89.04, 136.41 58.64, 151.74 39.33 M82.42 119.12 C105.46 92.29, 129.99 63.9, 153.18 38.3 M87.3 120.32 C104.74 98.82, 118.19 83.14, 150.49 46.34 M87.26 119.39 C105.38 97.94, 124.07 75.47, 152.65 44.46 M94.16 120.75 C109.69 97.96, 128.32 75.41, 151.09 51.55 M92.41 119.69 C110.46 97.53, 128.51 77.19, 151.45 50.54 M97.63 119.3 C113.75 105.44, 124.68 87.87, 152.68 58 M96.67 119.97 C112.31 103.96, 124.43 88.46, 152.1 57.69 M102.21 117.7 C115.83 104.8, 126.69 93.21, 152.61 63.89 M102.54 118.76 C114.73 107.42, 124.15 94.23, 151.73 63.79 M107.09 121.13 C122.63 99.59, 141.85 82.3, 152.36 66.98 M108.05 119.1 C120.71 104.78, 130.72 91.81, 153.2 69.69 M115.2 118.31 C127.57 107.34, 136.3 93.7, 151.47 76.95 M113.07 118.46 C124.15 107.99, 134.39 95.93, 152.18 75.34 M119.84 117.65 C129.11 110.76, 134.02 99.94, 151.99 80.27 M119.12 118.7 C125.51 111.24, 133.39 101.6, 152.77 80.54 M125.84 119.35 C134.34 109.81, 142.22 95.55, 153.1 88.38 M123.67 117.99 C133.09 108.13, 143.88 97.76, 151.39 86.82 M128.17 119.54 C136.77 110.45, 144.02 103.09, 151.59 94.47 M130 118.77 C139.29 109.4, 146.45 99.03, 152.36 94.17 M137.06 118.4 C139.43 116.17, 141.96 109.21, 151.75 97.93 M135.44 119.65 C139.21 113.76, 144.77 107.57, 153.03 99.2 M140.57 120.17 C143.77 116.07, 146.47 110.68, 151.37 104.79 M139.34 119.38 C142.81 115.06, 146.53 113.34, 152.8 105.37 M145.89 118.32 C148.06 117.34, 147.66 115.8, 153.12 111.69 M145.34 118.82 C148.12 116.54, 150.05 114.29, 152.78 111.4" stroke="#fab005" stroke-width="0.5" fill="none"></path><path d="M-0.2 1.92 C58.66 0.67, 119.09 -0.3, 151.7 -1.45 M-0.49 -0.26 C52.31 -0.65, 104.12 -0.1, 150.08 -0.65 M148.61 -0.9 C149.66 35.28, 150.86 69.73, 151.09 115.07 M149.41 0.58 C150.74 38.82, 150.32 76.69, 150.32 117.77 M149.56 118.81 C107 115.8, 64.78 115.72, 1.31 117.47 M149.17 116.89 C117.08 116.72, 84.08 115.36, 0.77 116.88 M0.93 115.77 C1.69 81.28, 1.77 44.66, -0.93 1.17 M-0.77 117.22 C-1.1 87.92, -0.57 59.6, 0.66 0.34" stroke="#000000" stroke-width="1" fill="none"></path></g><g transform="translate(369.75390625 125.130859375) rotate(0 70 37.5)"><text x="70" y="18" font-family="Virgil, Segoe UI Emoji" font-size="20px" fill="#000000" text-anchor="middle" style="white-space: pre;" direction="ltr">Terrform </text><text x="70" y="43" font-family="Virgil, Segoe UI Emoji" font-size="20px" fill="#000000" text-anchor="middle" style="white-space: pre;" direction="ltr">Operator </text><text x="70" y="68" font-family="Virgil, Segoe UI Emoji" font-size="20px" fill="#000000" text-anchor="middle" style="white-space: pre;" direction="ltr">Controller</text></g><g stroke-linecap="round" transform="translate(10 237.599609375) rotate(0 434 118)"><path d="M0.73 -0.37 C325.03 -3.04, 650.31 -3.02, 867.58 0.14 M868.47 -1.45 C869.64 69.89, 868.61 140.93, 866.83 237.07 M867.99 235.73 C647.71 232.78, 425.8 233.3, 0.2 236.78 M1.29 235.65 C0.43 142.9, 0.86 47.53, -0.81 -0.83" stroke="#000000" stroke-width="1.5" fill="none" stroke-dasharray="1.5 7"></path></g><g stroke-linecap="round" transform="translate(464.33203125 263.732421875) rotate(0 186 52)"><path d="M0.01 -1.24 L373.62 1.99 L371.65 105.1 L0.15 104.17" stroke="none" stroke-width="0" fill="#fab005"></path><path d="M-0.53 -0.12 C122 -2.49, 241.81 -1.65, 372 -0.49 M-0.01 -0.1 C93.04 -1.69, 187.23 -2.42, 372.02 -0.29 M372.43 0.43 C372.14 37.93, 372.9 78.55, 373.2 105.27 M371.79 -0.82 C370.49 28.51, 371.88 57.63, 371.74 104.68 M373 103.65 C269.12 105.72, 166.99 105.68, -0.84 103.44 M372.04 103.5 C257.74 103.04, 142.61 101.93, -0.45 103.97 M-0.94 102.48 C0.71 62.31, -0.56 22.64, 0.85 -0.07 M0.18 104.28 C-0.33 67.89, 0.38 31.06, 0.34 0.02" stroke="#000000" stroke-width="1" fill="none"></path></g><g transform="translate(469.33203125 278.232421875) rotate(0 181 37.5)"><text x="181" y="18" font-family="Virgil, Segoe UI Emoji" font-size="20px" fill="#000000" text-anchor="middle" style="white-space: pre;" direction="ltr">Plugin: Monitor</text><text x="181" y="43" font-family="Virgil, Segoe UI Emoji" font-size="20px" fill="#000000" text-anchor="middle" style="white-space: pre;" direction="ltr">Image: docker.io/my/monitor:latest</text><text x="181" y="68" font-family="Virgil, Segoe UI Emoji" font-size="20px" fill="#000000" text-anchor="middle" style="white-space: pre;" direction="ltr">When: After | Task: init</text></g><g stroke-linecap="round"><g transform="translate(539.2125914926708 196.587625037287) rotate(0 45.66006080706313 31.482798150740507)"><path d="M0.02 -0.47 C7.48 -0.81, 32.31 -3.75, 45.01 -1.09 C57.7 1.58, 68.3 4.5, 76.2 15.54 C84.09 26.58, 89.68 57, 92.39 65.16 M-1.42 -1.77 C6.39 -2.02, 34.48 -2.82, 47.28 0.25 C60.09 3.33, 67.83 6.22, 75.41 16.69 C82.99 27.16, 90.13 55.03, 92.74 63.09" stroke="#495057" stroke-width="1" fill="none"></path></g><g transform="translate(539.2125914926708 196.587625037287) rotate(0 45.66006080706313 31.482798150740507)"><path d="M93.5 61.5 L83.01 50.16 L94.72 49.51 L93.83 63.5" stroke="none" stroke-width="0" fill="#495057" fill-rule="evenodd"></path><path d="M92.15 62.04 C88.98 59.44, 85.86 56.15, 83.92 52.19 M93.35 62.4 C89.11 59.99, 86.24 55.36, 82.18 52.21 M83.13 52.58 C86.56 50.27, 89.45 50.8, 94.72 47.78 M82.6 51.25 C87.07 50.84, 90.69 49.85, 95.55 47.91 M93.52 47.62 C94.27 52.93, 93.17 55.68, 91.91 64.3 M95.25 47.94 C94.11 53.35, 93.74 58.5, 92.95 62.57 M92.74 63.09 C92.74 63.09, 92.74 63.09, 92.74 63.09 M92.74 63.09 C92.74 63.09, 92.74 63.09, 92.74 63.09" stroke="#495057" stroke-width="1" fill="none"></path></g></g><g stroke-linecap="round" transform="translate(165.990234375 22.73046875) rotate(0 68 45.5)"><path d="M-0.98 -1.88 C48.94 0.95, 97.7 0.1, 137.65 0.49 M0.91 0.18 C31.33 1.3, 63.68 0.69, 136.31 0.53 M137.23 0.13 C133.74 20.5, 134.3 42.26, 134.3 89.18 M136.34 0.25 C136.37 19.26, 136.39 38.63, 136.81 90.51 M134.91 90.11 C88.52 89.41, 41.81 88.98, 0.56 90.09 M136.54 90.43 C105.99 92.5, 73.83 92.33, 0.91 91.8 M-0.87 89.87 C0.25 65.6, -0.68 41.1, -0.34 -1.06 M-0.79 91.07 C0.57 71.21, -0.72 49.71, -0.08 0.09" stroke="#000000" stroke-width="1" fill="none"></path></g><g transform="translate(170.990234375 30.73046875) rotate(0 63 37.5)"><text x="63" y="18" font-family="Virgil, Segoe UI Emoji" font-size="20px" fill="#000000" text-anchor="middle" style="white-space: pre;" direction="ltr"></text><text x="63" y="43" font-family="Virgil, Segoe UI Emoji" font-size="20px" fill="#000000" text-anchor="middle" style="white-space: pre;" direction="ltr">TFO K8s </text><text x="63" y="68" font-family="Virgil, Segoe UI Emoji" font-size="20px" fill="#000000" text-anchor="middle" style="white-space: pre;" direction="ltr">Resource</text></g><g stroke-linecap="round" transform="translate(159.009765625 10) rotate(0 37 15)"><path d="M-1.58 -0.71 L73.92 -0.24 L73.56 29.53 L1.04 30.47" stroke="none" stroke-width="0" fill="#ced4da"></path><path d="M0.37 1.69 C26.76 1.54, 54.05 1.19, 72.69 1.68 M-0.55 0.95 C20.22 0.21, 40.91 0.39, 73.31 -0.57 M72.25 -0.55 C73 10.41, 72.49 18.72, 72.35 30.38 M74.19 -0.55 C74.32 5.93, 74.91 13.36, 74.41 29.92 M72.96 28.84 C52.84 28.09, 34.86 28.77, -1.44 29.74 M74.98 30.21 C44.53 29.61, 16.38 30.38, -0.33 29.39 M-0.31 28.87 C-1.1 16.7, -0.21 5.07, -1.57 0.95 M1 30.38 C-0.05 20.56, 0.16 13.14, 0.98 -0.77" stroke="#000000" stroke-width="1" fill="none"></path></g><g transform="translate(164.009765625 15) rotate(0 32 10)"><text x="32" y="14" font-family="Virgil, Segoe UI Emoji" font-size="16px" fill="#000000" text-anchor="middle" style="white-space: pre;" direction="ltr">YAML</text></g><g stroke-linecap="round" transform="translate(16.5 218.865234375) rotate(0 88 17.5)"><path d="M1.64 0.85 L174.7 1.32 L174.19 33.2 L0.06 35.01" stroke="none" stroke-width="0" fill="#ced4da"></path><path d="M-1.33 1.69 C60.2 -1.27, 118.04 -2.64, 174.41 0.35 M-0.1 -0.56 C45.96 0.76, 93.5 -0.01, 175.42 -0.99 M175.07 0.31 C178.2 13.54, 176.81 28.89, 175.18 35.24 M176.42 -0.4 C175.35 10.56, 175.83 20.92, 175.2 35.96 M176.36 35.31 C107.84 36.21, 41.54 36.47, -1.76 34.2 M175.37 35.63 C117.04 33.65, 60.33 34.79, -0.28 35.12 M1 33.82 C0.75 29.11, -0.72 22.3, 1.77 -1.21 M0.88 35.07 C-0.7 21.41, 0.33 8.19, 0.96 -0.86" stroke="#000000" stroke-width="2" fill="none"></path></g><g transform="translate(21.5 223.865234375) rotate(0 83 12.5)"><text x="83" y="18" font-family="Virgil, Segoe UI Emoji" font-size="20px" fill="#000000" text-anchor="middle" style="white-space: pre;" direction="ltr">Task Workflow</text></g><g stroke-linecap="round"><g transform="translate(345.94503348714636 176.52472255277587) rotate(0 -116.89901641894517 16.23349703945118)"><path d="M2.66 -2.33 C-12.87 -2.78, -58.19 -2.4, -90.83 -0.81 C-123.48 0.77, -168.97 1.2, -193.22 7.16 C-217.46 13.11, -229.41 30.29, -236.33 34.94 M0.66 2.57 C-15.29 1.08, -60.63 -5.36, -92.06 -5.4 C-123.48 -5.44, -163.81 -4.89, -187.88 2.32 C-211.94 9.53, -228.1 32.2, -236.46 37.87" stroke="#343a40" stroke-width="1" fill="none"></path></g><g transform="translate(345.94503348714636 176.52472255277587) rotate(0 -116.89901641894517 16.23349703945118)"><path d="M-239.08 38.14 L-233.66 25.46 L-226.09 34.92 L-238.28 35.62" stroke="none" stroke-width="0" fill="#343a40" fill-rule="evenodd"></path><path d="M-238.96 39.87 C-233.59 29.48, -230.85 25.69, -230.07 24.34 M-236.09 37.35 C-234.27 34.09, -233.73 29.93, -231.43 23.76 M-231.62 23.96 C-226.89 25.79, -223.54 28.81, -222.23 33.49 M-231.67 22.96 C-229.58 24.68, -228.48 28.82, -221.28 32.25 M-224.41 35.72 C-224.46 33.27, -232.49 37.79, -235.35 40.14 M-223.38 33.79 C-227.92 34.63, -233.74 36.17, -237.16 39.01 M-236.46 37.87 C-236.46 37.87, -236.46 37.87, -236.46 37.87 M-236.46 37.87 C-236.46 37.87, -236.46 37.87, -236.46 37.87" stroke="#343a40" stroke-width="1" fill="none"></path></g></g><g stroke-linecap="round" transform="translate(31.5 388.865234375) rotate(0 80.5 38)"><path d="M0 0 C0 0, 0 0, 0 0 M0 0 C0 0, 0 0, 0 0 M-0.26 6.4 C1.76 4.08, 3.77 1.76, 4.99 0.36 M-0.26 6.4 C0.99 4.96, 2.24 3.52, 4.99 0.36 M0.13 12.04 C3.26 8.44, 6.39 4.84, 10.63 -0.03 M0.13 12.04 C4.2 7.37, 8.26 2.7, 10.63 -0.03 M-0.13 18.44 C3.09 14.73, 6.32 11.03, 15.62 0.33 M-0.13 18.44 C3.07 14.76, 6.26 11.09, 15.62 0.33 M0.27 24.08 C5.44 18.13, 10.62 12.17, 21.26 -0.07 M0.27 24.08 C6.52 16.89, 12.78 9.69, 21.26 -0.07 M0 30.48 C8.48 20.73, 16.96 10.98, 26.25 0.29 M0 30.48 C9.1 20.02, 18.2 9.55, 26.25 0.29 M-0.26 36.88 C11.05 23.87, 22.36 10.86, 31.89 -0.1 M-0.26 36.88 C6.9 28.65, 14.06 20.41, 31.89 -0.1 M0.14 42.52 C12.37 28.45, 24.6 14.38, 36.88 0.26 M0.14 42.52 C12.52 28.28, 24.9 14.04, 36.88 0.26 M-0.12 48.92 C8.84 38.61, 17.8 28.3, 42.52 -0.14 M-0.12 48.92 C15.88 30.51, 31.88 12.11, 42.52 -0.14 M0.27 54.56 C16.05 36.41, 31.83 18.25, 47.51 0.22 M0.27 54.56 C11.37 41.79, 22.48 29.02, 47.51 0.22 M0.01 60.96 C17.25 41.12, 34.49 21.29, 53.15 -0.17 M0.01 60.96 C19.34 38.72, 38.68 16.47, 53.15 -0.17 M-0.25 67.36 C19.17 45.02, 38.58 22.68, 58.14 0.19 M-0.25 67.36 C17.03 47.48, 34.31 27.6, 58.14 0.19 M0.14 73 C19.48 50.76, 38.82 28.51, 63.78 -0.21 M0.14 73 C24.99 44.42, 49.84 15.83, 63.78 -0.21 M1.85 77.13 C17.94 58.62, 34.03 40.11, 68.77 0.15 M1.85 77.13 C26.5 48.78, 51.15 20.42, 68.77 0.15 M6.84 77.49 C24.65 57, 42.47 36.5, 74.41 -0.24 M6.84 77.49 C23.77 58.02, 40.7 38.54, 74.41 -0.24 M12.48 77.1 C30.97 55.83, 49.46 34.55, 79.4 0.12 M12.48 77.1 C32.21 54.41, 51.93 31.71, 79.4 0.12 M17.47 77.46 C32.7 59.93, 47.94 42.4, 85.04 -0.28 M17.47 77.46 C40.01 51.53, 62.55 25.6, 85.04 -0.28 M23.11 77.06 C47.52 48.98, 71.93 20.9, 90.03 0.08 M23.11 77.06 C43.95 53.09, 64.79 29.12, 90.03 0.08 M28.1 77.42 C49.53 52.77, 70.95 28.12, 95.67 -0.31 M28.1 77.42 C43.14 60.12, 58.17 42.82, 95.67 -0.31 M33.74 77.03 C56.28 51.1, 78.82 25.17, 100.66 0.05 M33.74 77.03 C50.35 57.92, 66.96 38.81, 100.66 0.05 M38.73 77.39 C63.91 48.42, 89.09 19.45, 106.3 -0.34 M38.73 77.39 C58.62 54.51, 78.51 31.62, 106.3 -0.34 M43.71 77.75 C65.99 52.12, 88.27 26.49, 111.29 0.02 M43.71 77.75 C65.95 52.17, 88.18 26.6, 111.29 0.02 M49.36 77.36 C71.6 51.77, 93.85 26.17, 116.27 0.38 M49.36 77.36 C70.75 52.75, 92.14 28.14, 116.27 0.38 M54.34 77.72 C80.48 47.65, 106.62 17.58, 121.92 -0.02 M54.34 77.72 C79.43 48.86, 104.51 20.01, 121.92 -0.02 M59.99 77.32 C76.25 58.61, 92.51 39.91, 126.91 0.34 M59.99 77.32 C77.57 57.09, 95.16 36.86, 126.91 0.34 M64.97 77.68 C82.4 57.64, 99.82 37.59, 132.55 -0.05 M64.97 77.68 C91.06 47.68, 117.14 17.67, 132.55 -0.05 M70.62 77.29 C87.83 57.48, 105.05 37.68, 137.54 0.31 M70.62 77.29 C89.48 55.59, 108.33 33.9, 137.54 0.31 M75.6 77.65 C102.55 46.64, 129.5 15.64, 143.18 -0.09 M75.6 77.65 C101.18 48.23, 126.75 18.81, 143.18 -0.09 M81.25 77.25 C96.92 59.22, 112.6 41.19, 148.17 0.27 M81.25 77.25 C103.24 51.96, 125.23 26.66, 148.17 0.27 M86.23 77.61 C111.36 48.7, 136.5 19.79, 153.81 -0.12 M86.23 77.61 C109.7 50.62, 133.16 23.63, 153.81 -0.12 M91.88 77.22 C114.58 51.1, 137.29 24.98, 158.8 0.24 M91.88 77.22 C115.22 50.37, 138.55 23.52, 158.8 0.24 M96.86 77.58 C113.14 58.86, 129.41 40.14, 163.13 1.35 M96.86 77.58 C115.74 55.87, 134.61 34.15, 163.13 1.35 M102.51 77.18 C117.23 60.24, 131.96 43.3, 162.86 7.75 M102.51 77.18 C119.51 57.63, 136.51 38.07, 162.86 7.75 M107.49 77.54 C129.23 52.53, 150.97 27.53, 162.6 14.15 M107.49 77.54 C128.3 53.61, 149.11 29.68, 162.6 14.15 M113.14 77.15 C129.4 58.44, 145.66 39.73, 163 19.79 M113.14 77.15 C126.12 62.21, 139.1 47.28, 163 19.79 M118.12 77.51 C131.49 62.13, 144.86 46.75, 162.74 26.19 M118.12 77.51 C127.28 66.97, 136.44 56.44, 162.74 26.19 M123.77 77.11 C134.39 64.89, 145.01 52.67, 163.13 31.83 M123.77 77.11 C132.11 67.52, 140.44 57.93, 163.13 31.83 M128.75 77.47 C140.64 63.81, 152.52 50.14, 162.87 38.23 M128.75 77.47 C140.41 64.06, 152.07 50.65, 162.87 38.23 M134.4 77.08 C141.89 68.46, 149.38 59.85, 162.61 44.63 M134.4 77.08 C141.63 68.75, 148.87 60.43, 162.61 44.63 M139.38 77.44 C144.91 71.09, 150.43 64.73, 163 50.27 M139.38 77.44 C147.76 67.81, 156.13 58.17, 163 50.27 M145.03 77.05 C148.74 72.77, 152.45 68.5, 162.74 56.67 M145.03 77.05 C150.5 70.75, 155.97 64.46, 162.74 56.67 M150.01 77.41 C154.69 72.03, 159.36 66.66, 163.14 62.31 M150.01 77.41 C152.7 74.31, 155.39 71.22, 163.14 62.31 M155 77.77 C157.4 75, 159.8 72.24, 162.87 68.71 M155 77.77 C157.18 75.26, 159.36 72.75, 162.87 68.71 M0.11 76.09 C0.11 76.09, 0.11 76.09, 0.11 76.09 M0.11 76.09 C0.11 76.09, 0.11 76.09, 0.11 76.09 M5.75 75.7 C4.17 74.33, 2.6 72.96, -0.29 70.45 M5.75 75.7 C4.16 74.32, 2.58 72.94, -0.29 70.45 M12.15 75.96 C9.25 73.44, 6.35 70.92, 0.07 65.46 M12.15 75.96 C9.35 73.53, 6.56 71.1, 0.07 65.46 M18.54 76.22 C13.03 71.43, 7.51 66.63, -0.32 59.82 M18.54 76.22 C11.72 70.29, 4.89 64.35, -0.32 59.82 M24.19 75.83 C16.15 68.84, 8.11 61.85, 0.04 54.83 M24.19 75.83 C16.97 69.55, 9.74 63.27, 0.04 54.83 M30.58 76.09 C20.65 67.45, 10.71 58.81, -0.36 49.19 M30.58 76.09 C22.44 69.01, 14.29 61.92, -0.36 49.19 M36.23 75.69 C24.51 65.51, 12.79 55.32, 0 44.2 M36.23 75.69 C22.23 63.52, 8.22 51.35, 0 44.2 M42.63 75.95 C26.77 62.17, 10.92 48.39, 0.36 39.21 M42.63 75.95 C32.04 66.75, 21.45 57.55, 0.36 39.21 M49.02 76.22 C32.2 61.59, 15.37 46.96, -0.03 33.57 M49.02 76.22 C38.04 66.67, 27.06 57.12, -0.03 33.57 M54.67 75.82 C33.57 57.48, 12.47 39.14, 0.33 28.58 M54.67 75.82 C43.79 66.36, 32.91 56.9, 0.33 28.58 M61.06 76.08 C47.08 63.93, 33.11 51.78, -0.07 22.94 M61.06 76.08 C40.59 58.28, 20.12 40.49, -0.07 22.94 M66.71 75.69 C53.36 64.08, 40 52.47, 0.29 17.95 M66.71 75.69 C41.26 53.57, 15.82 31.45, 0.29 17.95 M73.11 75.95 C49.39 55.34, 25.68 34.73, -0.1 12.31 M73.11 75.95 C55.75 60.86, 38.4 45.78, -0.1 12.31 M79.5 76.21 C50.98 51.42, 22.46 26.63, 0.26 7.32 M79.5 76.21 C58.62 58.06, 37.74 39.91, 0.26 7.32 M85.15 75.82 C61.41 55.18, 37.67 34.54, -0.14 1.68 M85.15 75.82 C64.55 57.91, 43.96 40.01, -0.14 1.68 M91.54 76.08 C63.01 51.27, 34.48 26.47, 1.73 -1.99 M91.54 76.08 C64.65 52.7, 37.75 29.32, 1.73 -1.99 M97.19 75.68 C75.1 56.48, 53.01 37.28, 8.13 -1.73 M97.19 75.68 C74.64 56.08, 52.09 36.48, 8.13 -1.73 M103.58 75.94 C82.61 57.71, 61.63 39.47, 13.77 -2.13 M103.58 75.94 C72.79 49.17, 41.99 22.4, 13.77 -2.13 M109.98 76.21 C83.47 53.16, 56.96 30.12, 20.17 -1.87 M109.98 76.21 C76.66 47.24, 43.34 18.28, 20.17 -1.87 M115.63 75.81 C82.14 46.7, 48.66 17.6, 25.82 -2.26 M115.63 75.81 C94.12 57.12, 72.62 38.43, 25.82 -2.26 M122.02 76.07 C87.16 45.77, 52.3 15.46, 32.21 -2 M122.02 76.07 C96.22 53.64, 70.42 31.21, 32.21 -2 M127.67 75.68 C100.32 51.91, 72.98 28.14, 38.61 -1.74 M127.67 75.68 C107.33 58, 86.99 40.32, 38.61 -1.74 M134.06 75.94 C115.94 60.18, 97.82 44.43, 44.25 -2.13 M134.06 75.94 C108.16 53.43, 82.27 30.91, 44.25 -2.13 M140.46 76.2 C112.26 51.68, 84.05 27.17, 50.65 -1.87 M140.46 76.2 C109.67 49.44, 78.89 22.67, 50.65 -1.87 M146.11 75.81 C117.64 51.06, 89.17 26.31, 56.29 -2.27 M146.11 75.81 C123.28 55.96, 100.45 36.12, 56.29 -2.27 M152.5 76.07 C118.56 46.56, 84.62 17.06, 62.69 -2 M152.5 76.07 C133.68 59.7, 114.85 43.34, 62.69 -2 M158.15 75.67 C138.47 58.57, 118.8 41.47, 69.09 -1.74 M158.15 75.67 C135.13 55.67, 112.12 35.66, 69.09 -1.74 M162.28 73.97 C128.22 44.36, 94.17 14.76, 74.73 -2.14 M162.28 73.97 C140.44 54.98, 118.6 36, 74.73 -2.14 M162.64 68.98 C137.61 47.23, 112.59 25.47, 81.13 -1.88 M162.64 68.98 C132.59 42.86, 102.55 16.74, 81.13 -1.88 M162.25 63.34 C136.29 40.78, 110.34 18.22, 86.77 -2.27 M162.25 63.34 C141.37 45.19, 120.5 27.04, 86.77 -2.27 M162.61 58.35 C143.51 41.75, 124.41 25.14, 93.17 -2.01 M162.61 58.35 C145.52 43.5, 128.44 28.65, 93.17 -2.01 M162.21 52.71 C140.58 33.9, 118.94 15.09, 99.57 -1.75 M162.21 52.71 C143.47 36.41, 124.73 20.12, 99.57 -1.75 M162.57 47.72 C143.58 31.21, 124.6 14.71, 105.21 -2.14 M162.57 47.72 C142.75 30.49, 122.93 13.26, 105.21 -2.14 M162.93 42.73 C152.54 33.7, 142.14 24.66, 111.61 -1.88 M162.93 42.73 C146.56 28.5, 130.18 14.26, 111.61 -1.88 M162.54 37.09 C145.01 21.85, 127.48 6.62, 117.25 -2.27 M162.54 37.09 C148.23 24.65, 133.92 12.21, 117.25 -2.27 M162.9 32.1 C153.84 24.23, 144.78 16.36, 123.65 -2.01 M162.9 32.1 C149.87 20.78, 136.85 9.46, 123.65 -2.01 M162.5 26.46 C154.01 19.08, 145.52 11.7, 130.05 -1.75 M162.5 26.46 C149.53 15.18, 136.56 3.91, 130.05 -1.75 M162.86 21.47 C156.03 15.53, 149.19 9.59, 135.69 -2.15 M162.86 21.47 C153.98 13.75, 145.1 6.03, 135.69 -2.15 M162.47 15.83 C156.77 10.88, 151.08 5.93, 142.09 -1.89 M162.47 15.83 C157.72 11.7, 152.97 7.57, 142.09 -1.89 M162.83 10.84 C156.9 5.69, 150.97 0.53, 147.73 -2.28 M162.83 10.84 C158.49 7.07, 154.15 3.3, 147.73 -2.28 M162.43 5.2 C160.18 3.24, 157.93 1.28, 154.13 -2.02 M162.43 5.2 C160.39 3.42, 158.35 1.65, 154.13 -2.02" stroke="#82c91e" stroke-width="0.5" fill="none"></path><path d="M0 0 C35.37 0, 70.73 0, 161 0 M0 0 C48.02 0, 96.04 0, 161 0 M161 0 C161 30.09, 161 60.17, 161 76 M161 0 C161 26.21, 161 52.43, 161 76 M161 76 C126.3 76, 91.61 76, 0 76 M161 76 C109.95 76, 58.9 76, 0 76 M0 76 C0 47.49, 0 18.97, 0 0 M0 76 C0 47.21, 0 18.41, 0 0" stroke="#000000" stroke-width="1" fill="none"></path></g><g transform="translate(36.5 401.865234375) rotate(0 75.5 25)"><text x="75.5" y="18" font-family="Virgil, Segoe UI Emoji" font-size="20px" fill="#000000" text-anchor="middle" style="white-space: pre;" direction="ltr">Setup </text><text x="75.5" y="43" font-family="Virgil, Segoe UI Emoji" font-size="20px" fill="#000000" text-anchor="middle" style="white-space: pre;" direction="ltr">Task</text></g><g stroke-linecap="round" transform="translate(251.5 388.365234375) rotate(0 84.5 38)"><path d="M0 0 C0 0, 0 0, 0 0 M0 0 C0 0, 0 0, 0 0 M-0.26 6.4 C0.8 5.17, 1.87 3.95, 4.99 0.36 M-0.26 6.4 C1.03 4.91, 2.33 3.42, 4.99 0.36 M0.13 12.04 C3.26 8.44, 6.39 4.84, 10.63 -0.03 M0.13 12.04 C3.52 8.14, 6.91 4.24, 10.63 -0.03 M-0.13 18.44 C5.33 12.16, 10.79 5.88, 15.62 0.33 M-0.13 18.44 C5.41 12.07, 10.95 5.69, 15.62 0.33 M0.27 24.08 C4.94 18.71, 9.61 13.33, 21.26 -0.07 M0.27 24.08 C7.25 16.04, 14.24 8, 21.26 -0.07 M0 30.48 C8.85 20.31, 17.69 10.14, 26.25 0.29 M0 30.48 C5.52 24.14, 11.03 17.79, 26.25 0.29 M-0.26 36.88 C11.8 23, 23.87 9.13, 31.89 -0.1 M-0.26 36.88 C10.48 24.52, 21.22 12.17, 31.89 -0.1 M0.14 42.52 C8.77 32.59, 17.41 22.65, 36.88 0.26 M0.14 42.52 C12.06 28.81, 23.98 15.1, 36.88 0.26 M-0.12 48.92 C15.39 31.07, 30.91 13.22, 42.52 -0.14 M-0.12 48.92 C14.06 32.6, 28.24 16.29, 42.52 -0.14 M0.27 54.56 C14.25 38.48, 28.23 22.4, 47.51 0.22 M0.27 54.56 C14.62 38.05, 28.98 21.54, 47.51 0.22 M0.01 60.96 C20.76 37.09, 41.51 13.22, 53.15 -0.17 M0.01 60.96 C12.79 46.26, 25.57 31.56, 53.15 -0.17 M-0.25 67.36 C21.26 42.61, 42.77 17.87, 58.14 0.19 M-0.25 67.36 C15.14 49.65, 30.54 31.93, 58.14 0.19 M0.14 73 C16.09 54.66, 32.03 36.32, 63.78 -0.21 M0.14 73 C17.73 52.77, 35.31 32.54, 63.78 -0.21 M1.85 77.13 C21.58 54.44, 41.3 31.75, 68.77 0.15 M1.85 77.13 C16.94 59.78, 32.03 42.42, 68.77 0.15 M6.84 77.49 C29.38 51.56, 51.92 25.64, 74.41 -0.24 M6.84 77.49 C31.49 49.14, 56.14 20.78, 74.41 -0.24 M12.48 77.1 C33.32 53.13, 54.16 29.15, 79.4 0.12 M12.48 77.1 C33.7 52.69, 54.92 28.28, 79.4 0.12 M17.47 77.46 C32.51 60.16, 47.54 42.86, 85.04 -0.28 M17.47 77.46 C40.23 51.27, 62.99 25.09, 85.04 -0.28 M23.11 77.06 C39.72 57.95, 56.33 38.84, 90.03 0.08 M23.11 77.06 C48.05 48.38, 72.98 19.69, 90.03 0.08 M28.1 77.42 C47.99 54.54, 67.88 31.65, 95.67 -0.31 M28.1 77.42 C50.38 51.79, 72.66 26.16, 95.67 -0.31 M33.74 77.03 C55.76 51.7, 77.77 26.38, 100.66 0.05 M33.74 77.03 C55.99 51.44, 78.23 25.85, 100.66 0.05 M38.73 77.39 C60.33 52.54, 81.93 27.69, 106.3 -0.34 M38.73 77.39 C64.87 47.32, 91 17.25, 106.3 -0.34 M43.71 77.75 C68.8 48.9, 93.88 20.04, 111.29 0.02 M43.71 77.75 C60.14 58.86, 76.56 39.97, 111.29 0.02 M49.36 77.36 C66.94 57.13, 84.53 36.9, 116.27 0.38 M49.36 77.36 C66.61 57.51, 83.87 37.66, 116.27 0.38 M54.34 77.72 C80.43 47.71, 106.51 17.71, 121.92 -0.02 M54.34 77.72 C71.73 57.72, 89.11 37.72, 121.92 -0.02 M59.99 77.32 C78.85 55.63, 97.7 33.93, 126.91 0.34 M59.99 77.32 C86.68 46.62, 113.36 15.92, 126.91 0.34 M64.97 77.68 C90.55 48.26, 116.12 18.85, 132.55 -0.05 M64.97 77.68 C80.8 59.47, 96.63 41.26, 132.55 -0.05 M70.62 77.29 C92.61 51.99, 114.6 26.69, 137.54 0.31 M70.62 77.29 C95.5 48.66, 120.39 20.03, 137.54 0.31 M75.6 77.65 C99.07 50.66, 122.53 23.66, 143.18 -0.09 M75.6 77.65 C98.53 51.27, 121.46 24.9, 143.18 -0.09 M81.25 77.25 C104.59 50.4, 127.92 23.56, 148.17 0.27 M81.25 77.25 C97.68 58.35, 114.11 39.45, 148.17 0.27 M86.23 77.61 C105.48 55.47, 124.73 33.33, 153.81 -0.12 M86.23 77.61 C102.72 58.65, 119.21 39.68, 153.81 -0.12 M91.88 77.22 C110.73 55.54, 129.57 33.85, 158.8 0.24 M91.88 77.22 C118.28 46.85, 144.67 16.48, 158.8 0.24 M96.86 77.58 C122.38 48.23, 147.89 18.88, 164.44 -0.16 M96.86 77.58 C118.9 52.22, 140.94 26.87, 164.44 -0.16 M102.51 77.18 C119.93 57.14, 137.36 37.09, 169.43 0.2 M102.51 77.18 C122.56 54.11, 142.61 31.05, 169.43 0.2 M107.49 77.54 C120.15 62.98, 132.81 48.42, 169.16 6.6 M107.49 77.54 C124.14 58.4, 140.78 39.25, 169.16 6.6 M113.14 77.15 C125.09 63.4, 137.04 49.65, 169.56 12.24 M113.14 77.15 C132.79 54.54, 152.44 31.94, 169.56 12.24 M118.12 77.51 C135.61 57.39, 153.1 37.27, 169.3 18.64 M118.12 77.51 C131.71 61.88, 145.3 46.25, 169.3 18.64 M123.77 77.11 C135.38 63.76, 146.99 50.4, 169.04 25.04 M123.77 77.11 C134.35 64.94, 144.94 52.76, 169.04 25.04 M128.75 77.47 C143.18 60.88, 157.6 44.29, 169.43 30.68 M128.75 77.47 C137.28 67.67, 145.81 57.86, 169.43 30.68 M134.4 77.08 C145.14 64.72, 155.88 52.37, 169.17 37.08 M134.4 77.08 C146.77 62.84, 159.15 48.6, 169.17 37.08 M139.38 77.44 C145.57 70.33, 151.75 63.22, 169.56 42.72 M139.38 77.44 C148.59 66.85, 157.79 56.26, 169.56 42.72 M145.03 77.05 C151.75 69.31, 158.48 61.57, 169.3 49.12 M145.03 77.05 C150.38 70.88, 155.74 64.72, 169.3 49.12 M150.01 77.41 C154.72 71.99, 159.43 66.57, 169.04 55.52 M150.01 77.41 C154.98 71.7, 159.94 65.99, 169.04 55.52 M155 77.77 C158.79 73.4, 162.59 69.04, 169.44 61.16 M155 77.77 C158.47 73.78, 161.93 69.79, 169.44 61.16 M160.64 77.37 C162.62 75.1, 164.59 72.83, 169.17 67.56 M160.64 77.37 C163.14 74.5, 165.63 71.63, 169.17 67.56 M165.63 77.73 C167.06 76.09, 168.48 74.45, 169.57 73.2 M165.63 77.73 C166.94 76.22, 168.25 74.72, 169.57 73.2 M0.11 76.09 C0.11 76.09, 0.11 76.09, 0.11 76.09 M0.11 76.09 C0.11 76.09, 0.11 76.09, 0.11 76.09 M5.75 75.7 C4.16 74.32, 2.57 72.93, -0.29 70.45 M5.75 75.7 C3.8 74, 1.84 72.3, -0.29 70.45 M12.15 75.96 C7.48 71.9, 2.81 67.84, 0.07 65.46 M12.15 75.96 C7.62 72.02, 3.09 68.08, 0.07 65.46 M18.54 76.22 C13.82 72.11, 9.09 68, -0.32 59.82 M18.54 76.22 C12.07 70.59, 5.6 64.97, -0.32 59.82 M24.19 75.83 C18.78 71.12, 13.37 66.42, 0.04 54.83 M24.19 75.83 C14.81 67.67, 5.43 59.52, 0.04 54.83 M30.58 76.09 C24.39 70.7, 18.19 65.32, -0.36 49.19 M30.58 76.09 C23.51 69.94, 16.43 63.78, -0.36 49.19 M36.23 75.69 C24.1 65.15, 11.96 54.6, 0 44.2 M36.23 75.69 C28.95 69.36, 21.66 63.03, 0 44.2 M42.63 75.95 C26.43 61.88, 10.24 47.8, 0.36 39.21 M42.63 75.95 C28.94 64.05, 15.25 52.15, 0.36 39.21 M49.02 76.22 C37.4 66.11, 25.77 56, -0.03 33.57 M49.02 76.22 C31.37 60.87, 13.71 45.52, -0.03 33.57 M54.67 75.82 C40.35 63.37, 26.03 50.93, 0.33 28.58 M54.67 75.82 C39.54 62.67, 24.42 49.52, 0.33 28.58 M61.06 76.08 C46.3 63.25, 31.54 50.42, -0.07 22.94 M61.06 76.08 C41.64 59.2, 22.22 42.31, -0.07 22.94 M66.71 75.69 C46.82 58.4, 26.93 41.11, 0.29 17.95 M66.71 75.69 C50.23 61.37, 33.76 47.05, 0.29 17.95 M73.11 75.95 C54.57 59.83, 36.03 43.72, -0.1 12.31 M73.11 75.95 C56 61.08, 38.9 46.22, -0.1 12.31 M79.5 76.21 C52.33 52.59, 25.15 28.96, 0.26 7.32 M79.5 76.21 C56.11 55.88, 32.72 35.54, 0.26 7.32 M85.15 75.82 C53.51 48.31, 21.87 20.81, -0.14 1.68 M85.15 75.82 C53.35 48.18, 21.55 20.54, -0.14 1.68 M91.54 76.08 C70.04 57.38, 48.54 38.69, 1.73 -1.99 M91.54 76.08 C56.68 45.77, 21.82 15.46, 1.73 -1.99 M97.19 75.68 C71.6 53.44, 46.01 31.2, 8.13 -1.73 M97.19 75.68 C69.84 51.91, 42.5 28.14, 8.13 -1.73 M103.58 75.94 C83.08 58.12, 62.57 40.29, 13.77 -2.13 M103.58 75.94 C85.46 60.19, 67.34 44.43, 13.77 -2.13 M109.98 76.21 C84.08 53.69, 58.18 31.18, 20.17 -1.87 M109.98 76.21 C81.78 51.69, 53.57 27.17, 20.17 -1.87 M115.63 75.81 C84.84 49.05, 54.05 22.28, 25.82 -2.26 M115.63 75.81 C87.16 51.06, 58.69 26.32, 25.82 -2.26 M122.02 76.07 C99.2 56.23, 76.37 36.39, 32.21 -2 M122.02 76.07 C88.08 46.57, 54.14 17.06, 32.21 -2 M127.67 75.68 C109 59.45, 90.33 43.22, 38.61 -1.74 M127.67 75.68 C108 58.58, 88.32 41.48, 38.61 -1.74 M134.06 75.94 C110.85 55.76, 87.64 35.59, 44.25 -2.13 M134.06 75.94 C99.13 45.57, 64.19 15.2, 44.25 -2.13 M140.46 76.2 C118.06 56.73, 95.66 37.25, 50.65 -1.87 M140.46 76.2 C112.89 52.23, 85.31 28.26, 50.65 -1.87 M146.11 75.81 C113 47.03, 79.89 18.25, 56.29 -2.27 M146.11 75.81 C115.22 48.96, 84.34 22.11, 56.29 -2.27 M152.5 76.07 C127.66 54.47, 102.82 32.88, 62.69 -2 M152.5 76.07 C127.8 54.59, 103.09 33.12, 62.69 -2 M158.15 75.67 C136.24 56.63, 114.33 37.58, 69.09 -1.74 M158.15 75.67 C127.39 48.94, 96.63 22.2, 69.09 -1.74 M164.54 75.93 C137.67 52.58, 110.8 29.22, 74.73 -2.14 M164.54 75.93 C134.81 50.09, 105.09 24.25, 74.73 -2.14 M169.43 74.88 C138.92 48.36, 108.41 21.84, 81.13 -1.88 M169.43 74.88 C151.55 59.34, 133.66 43.79, 81.13 -1.88 M169.79 69.9 C143.3 46.87, 116.81 23.84, 86.77 -2.27 M169.79 69.9 C137.66 41.96, 105.53 14.03, 86.77 -2.27 M169.4 64.25 C145.31 43.32, 121.23 22.38, 93.17 -2.01 M169.4 64.25 C151.81 48.96, 134.22 33.67, 93.17 -2.01 M169.76 59.27 C146.46 39.02, 123.17 18.77, 99.57 -1.75 M169.76 59.27 C151.4 43.3, 133.03 27.34, 99.57 -1.75 M169.36 53.62 C143.72 31.33, 118.08 9.04, 105.21 -2.14 M169.36 53.62 C153.22 39.59, 137.08 25.56, 105.21 -2.14 M169.72 48.64 C150.72 32.12, 131.72 15.6, 111.61 -1.88 M169.72 48.64 C153.48 34.52, 137.25 20.4, 111.61 -1.88 M170.08 43.65 C157.77 32.94, 145.45 22.24, 117.25 -2.27 M170.08 43.65 C149.33 25.61, 128.57 7.56, 117.25 -2.27 M169.69 38.01 C156.46 26.51, 143.23 15, 123.65 -2.01 M169.69 38.01 C157.19 27.14, 144.69 16.28, 123.65 -2.01 M170.05 33.02 C160.21 24.46, 150.36 15.91, 130.05 -1.75 M170.05 33.02 C158.5 22.98, 146.95 12.94, 130.05 -1.75 M169.65 27.38 C156.41 15.86, 143.16 4.35, 135.69 -2.15 M169.65 27.38 C156.92 16.31, 144.19 5.24, 135.69 -2.15 M170.01 22.39 C162.69 16.02, 155.36 9.65, 142.09 -1.89 M170.01 22.39 C162.21 15.61, 154.41 8.82, 142.09 -1.89 M169.62 16.75 C165.12 12.84, 160.62 8.93, 147.73 -2.28 M169.62 16.75 C164.52 12.31, 159.41 7.87, 147.73 -2.28 M169.98 11.76 C165.24 7.63, 160.49 3.51, 154.13 -2.02 M169.98 11.76 C166.63 8.84, 163.27 5.93, 154.13 -2.02 M169.59 6.12 C166.88 3.77, 164.18 1.42, 160.53 -1.76 M169.59 6.12 C166 3, 162.41 -0.12, 160.53 -1.76 M169.95 1.13 C168.56 -0.08, 167.16 -1.29, 166.17 -2.15 M169.95 1.13 C169.05 0.35, 168.15 -0.43, 166.17 -2.15" stroke="#82c91e" stroke-width="0.5" fill="none"></path><path d="M0 0 C53.59 0, 107.17 0, 169 0 M0 0 C63.41 0, 126.81 0, 169 0 M169 0 C169 28.79, 169 57.59, 169 76 M169 0 C169 16.39, 169 32.78, 169 76 M169 76 C123.55 76, 78.1 76, 0 76 M169 76 C104.03 76, 39.06 76, 0 76 M0 76 C0 57.9, 0 39.8, 0 0 M0 76 C0 53.35, 0 30.7, 0 0" stroke="#000000" stroke-width="1" fill="none"></path></g><g transform="translate(256.5 401.365234375) rotate(0 79.5 25)"><text x="79.5" y="18" font-family="Virgil, Segoe UI Emoji" font-size="20px" fill="#000000" text-anchor="middle" style="white-space: pre;" direction="ltr">Terraform Init</text><text x="79.5" y="43" font-family="Virgil, Segoe UI Emoji" font-size="20px" fill="#000000" text-anchor="middle" style="white-space: pre;" direction="ltr">Task</text></g><g stroke-linecap="round"><g transform="translate(201.5 426.1061646118868) rotate(0 21.5 -0.03883403275688124)"><path d="M0 0 C7.17 -0.01, 35.83 -0.06, 43 -0.08 M0 0 C7.17 -0.01, 35.83 -0.06, 43 -0.08" stroke="#000000" stroke-width="4" fill="none"></path></g><g transform="translate(201.5 426.1061646118868) rotate(0 21.5 -0.03883403275688124)"><path d="M22.81 7.31 C29.14 5, 35.47 2.68, 43 -0.08 M22.81 7.31 C28.38 5.27, 33.95 3.24, 43 -0.08" stroke="#000000" stroke-width="4" fill="none"></path></g><g transform="translate(201.5 426.1061646118868) rotate(0 21.5 -0.03883403275688124)"><path d="M22.78 -7.39 C29.12 -5.1, 35.46 -2.81, 43 -0.08 M22.78 -7.39 C28.36 -5.38, 33.93 -3.36, 43 -0.08" stroke="#000000" stroke-width="4" fill="none"></path></g></g><g stroke-linecap="round" transform="translate(476 387.865234375) rotate(0 84.5 38)"><path d="M0 0 C0 0, 0 0, 0 0 M0 0 C0 0, 0 0, 0 0 M-0.26 6.4 C0.96 5, 2.18 3.59, 4.99 0.36 M-0.26 6.4 C0.89 5.07, 2.05 3.74, 4.99 0.36 M0.13 12.04 C2.61 9.19, 5.1 6.33, 10.63 -0.03 M0.13 12.04 C2.24 9.62, 4.34 7.2, 10.63 -0.03 M-0.13 18.44 C3.49 14.28, 7.11 10.11, 15.62 0.33 M-0.13 18.44 C4.49 13.13, 9.11 7.81, 15.62 0.33 M0.27 24.08 C5.09 18.53, 9.91 12.98, 21.26 -0.07 M0.27 24.08 C7.32 15.97, 14.38 7.85, 21.26 -0.07 M0 30.48 C8.61 20.58, 17.22 10.67, 26.25 0.29 M0 30.48 C9.79 19.22, 19.58 7.96, 26.25 0.29 M-0.26 36.88 C7.09 28.42, 14.44 19.97, 31.89 -0.1 M-0.26 36.88 C9.95 25.14, 20.15 13.4, 31.89 -0.1 M0.14 42.52 C14.28 26.25, 28.42 9.98, 36.88 0.26 M0.14 42.52 C8.02 33.45, 15.91 24.38, 36.88 0.26 M-0.12 48.92 C14.28 32.35, 28.69 15.77, 42.52 -0.14 M-0.12 48.92 C12.83 34.02, 25.79 19.11, 42.52 -0.14 M0.27 54.56 C12.2 40.84, 24.12 27.12, 47.51 0.22 M0.27 54.56 C13.53 39.31, 26.79 24.06, 47.51 0.22 M0.01 60.96 C13.63 45.29, 27.25 29.63, 53.15 -0.17 M0.01 60.96 C19.16 38.93, 38.31 16.9, 53.15 -0.17 M-0.25 67.36 C21.71 42.09, 43.68 16.82, 58.14 0.19 M-0.25 67.36 C19.57 44.55, 39.39 21.75, 58.14 0.19 M0.14 73 C17.73 52.77, 35.31 32.54, 63.78 -0.21 M0.14 73 C16.61 54.06, 33.08 35.11, 63.78 -0.21 M1.85 77.13 C28.31 46.69, 54.77 16.25, 68.77 0.15 M1.85 77.13 C19.63 56.68, 37.41 36.22, 68.77 0.15 M6.84 77.49 C26.05 55.39, 45.26 33.3, 74.41 -0.24 M6.84 77.49 C25.55 55.97, 44.25 34.45, 74.41 -0.24 M12.48 77.1 C35.45 50.67, 58.43 24.24, 79.4 0.12 M12.48 77.1 C28.57 58.59, 44.65 40.09, 79.4 0.12 M17.47 77.46 C41.8 49.47, 66.13 21.48, 85.04 -0.28 M17.47 77.46 C44.41 46.47, 71.35 15.47, 85.04 -0.28 M23.11 77.06 C39.62 58.07, 56.13 39.08, 90.03 0.08 M23.11 77.06 C46.58 50.07, 70.05 23.07, 90.03 0.08 M28.1 77.42 C53.6 48.08, 79.11 18.74, 95.67 -0.31 M28.1 77.42 C49.36 52.97, 70.62 28.51, 95.67 -0.31 M33.74 77.03 C55.57 51.92, 77.4 26.8, 100.66 0.05 M33.74 77.03 C59.85 47, 85.95 16.96, 100.66 0.05 M38.73 77.39 C52.51 61.54, 66.29 45.68, 106.3 -0.34 M38.73 77.39 C53.67 60.2, 68.62 43, 106.3 -0.34 M43.71 77.75 C70.49 46.95, 97.26 16.15, 111.29 0.02 M43.71 77.75 C61.17 57.67, 78.63 37.59, 111.29 0.02 M49.36 77.36 C69.48 54.21, 89.6 31.06, 116.27 0.38 M49.36 77.36 C64.16 60.32, 78.97 43.29, 116.27 0.38 M54.34 77.72 C72.23 57.14, 90.12 36.56, 121.92 -0.02 M54.34 77.72 C78.76 49.63, 103.17 21.54, 121.92 -0.02 M59.99 77.32 C81.58 52.48, 103.18 27.63, 126.91 0.34 M59.99 77.32 C81.66 52.39, 103.34 27.45, 126.91 0.34 M64.97 77.68 C87.52 51.74, 110.07 25.8, 132.55 -0.05 M64.97 77.68 C79.25 61.26, 93.52 44.84, 132.55 -0.05 M70.62 77.29 C91.95 52.75, 113.28 28.21, 137.54 0.31 M70.62 77.29 C86.98 58.47, 103.34 39.65, 137.54 0.31 M75.6 77.65 C102.55 46.65, 129.49 15.66, 143.18 -0.09 M75.6 77.65 C90.91 60.03, 106.22 42.42, 143.18 -0.09 M81.25 77.25 C103.42 51.75, 125.59 26.24, 148.17 0.27 M81.25 77.25 C94.93 61.51, 108.62 45.76, 148.17 0.27 M86.23 77.61 C103.07 58.25, 119.9 38.88, 153.81 -0.12 M86.23 77.61 C108.67 51.8, 131.11 25.99, 153.81 -0.12 M91.88 77.22 C118.42 46.69, 144.96 16.16, 158.8 0.24 M91.88 77.22 C114.09 51.67, 136.3 26.12, 158.8 0.24 M96.86 77.58 C114.97 56.75, 133.08 35.92, 164.44 -0.16 M96.86 77.58 C121.09 49.7, 145.33 21.83, 164.44 -0.16 M102.51 77.18 C125.56 50.66, 148.62 24.14, 169.43 0.2 M102.51 77.18 C119.95 57.12, 137.4 37.05, 169.43 0.2 M107.49 77.54 C121.81 61.07, 136.13 44.6, 169.16 6.6 M107.49 77.54 C122.51 60.27, 137.52 43.01, 169.16 6.6 M113.14 77.15 C135.65 51.26, 158.16 25.36, 169.56 12.24 M113.14 77.15 C131.82 55.65, 150.51 34.16, 169.56 12.24 M118.12 77.51 C134.11 59.12, 150.1 40.73, 169.3 18.64 M118.12 77.51 C129.89 63.97, 141.66 50.43, 169.3 18.64 M123.77 77.11 C140.84 57.47, 157.92 37.82, 169.04 25.04 M123.77 77.11 C141.42 56.8, 159.08 36.49, 169.04 25.04 M128.75 77.47 C139.85 64.71, 150.95 51.94, 169.43 30.68 M128.75 77.47 C139.66 64.93, 150.56 52.39, 169.43 30.68 M134.4 77.08 C144.51 65.45, 154.61 53.82, 169.17 37.08 M134.4 77.08 C147.96 61.48, 161.52 45.88, 169.17 37.08 M139.38 77.44 C147.59 68, 155.79 58.57, 169.56 42.72 M139.38 77.44 C145.83 70.03, 152.27 62.62, 169.56 42.72 M145.03 77.05 C153.38 67.43, 161.74 57.82, 169.3 49.12 M145.03 77.05 C154.5 66.15, 163.97 55.25, 169.3 49.12 M150.01 77.41 C154.98 71.69, 159.94 65.98, 169.04 55.52 M150.01 77.41 C154.36 72.4, 158.71 67.4, 169.04 55.52 M155 77.77 C159.86 72.18, 164.72 66.58, 169.44 61.16 M155 77.77 C160.14 71.85, 165.28 65.94, 169.44 61.16 M160.64 77.37 C163.94 73.58, 167.23 69.8, 169.17 67.56 M160.64 77.37 C163.9 73.63, 167.16 69.88, 169.17 67.56 M165.63 77.73 C166.66 76.55, 167.68 75.37, 169.57 73.2 M165.63 77.73 C167.04 76.11, 168.46 74.48, 169.57 73.2 M0.11 76.09 C0.11 76.09, 0.11 76.09, 0.11 76.09 M0.11 76.09 C0.11 76.09, 0.11 76.09, 0.11 76.09 M5.75 75.7 C3.93 74.11, 2.1 72.53, -0.29 70.45 M5.75 75.7 C3.47 73.72, 1.2 71.74, -0.29 70.45 M12.15 75.96 C7.38 71.81, 2.61 67.67, 0.07 65.46 M12.15 75.96 C8.44 72.73, 4.72 69.51, 0.07 65.46 M18.54 76.22 C14 72.27, 9.46 68.33, -0.32 59.82 M18.54 76.22 C13 71.4, 7.46 66.58, -0.32 59.82 M24.19 75.83 C16.01 68.71, 7.83 61.6, 0.04 54.83 M24.19 75.83 C15.78 68.52, 7.38 61.22, 0.04 54.83 M30.58 76.09 C22.83 69.34, 15.07 62.6, -0.36 49.19 M30.58 76.09 C21.3 68.01, 12.01 59.94, -0.36 49.19 M36.23 75.69 C23.97 65.04, 11.72 54.39, 0 44.2 M36.23 75.69 C26.7 67.41, 17.18 59.13, 0 44.2 M42.63 75.95 C29.96 64.94, 17.29 53.93, 0.36 39.21 M42.63 75.95 C30.26 65.21, 17.9 54.46, 0.36 39.21 M49.02 76.22 C33.91 63.08, 18.8 49.94, -0.03 33.57 M49.02 76.22 C36.66 65.47, 24.29 54.72, -0.03 33.57 M54.67 75.82 C35.73 59.36, 16.79 42.89, 0.33 28.58 M54.67 75.82 C39.79 62.89, 24.92 49.96, 0.33 28.58 M61.06 76.08 C39.3 57.16, 17.53 38.24, -0.07 22.94 M61.06 76.08 C47.54 64.32, 34.01 52.56, -0.07 22.94 M66.71 75.69 C43.3 55.34, 19.9 35, 0.29 17.95 M66.71 75.69 C43.28 55.32, 19.85 34.96, 0.29 17.95 M73.11 75.95 C44.98 51.5, 16.86 27.05, -0.1 12.31 M73.11 75.95 C45.09 51.59, 17.07 27.23, -0.1 12.31 M79.5 76.21 C58.9 58.3, 38.3 40.4, 0.26 7.32 M79.5 76.21 C52.16 52.44, 24.82 28.68, 0.26 7.32 M85.15 75.82 C60.58 54.46, 36.02 33.11, -0.14 1.68 M85.15 75.82 C63.4 56.92, 41.66 38.01, -0.14 1.68 M91.54 76.08 C72.35 59.39, 53.16 42.71, 1.73 -1.99 M91.54 76.08 C58.13 47.03, 24.71 17.98, 1.73 -1.99 M97.19 75.68 C65.4 48.05, 33.61 20.42, 8.13 -1.73 M97.19 75.68 C73.8 55.35, 50.42 35.03, 8.13 -1.73 M103.58 75.94 C72.17 48.63, 40.75 21.32, 13.77 -2.13 M103.58 75.94 C80.07 55.51, 56.56 35.07, 13.77 -2.13 M109.98 76.21 C85.37 54.81, 60.76 33.42, 20.17 -1.87 M109.98 76.21 C79.75 49.92, 49.52 23.64, 20.17 -1.87 M115.63 75.81 C79.85 44.71, 44.08 13.61, 25.82 -2.26 M115.63 75.81 C84.35 48.63, 53.08 21.44, 25.82 -2.26 M122.02 76.07 C93.63 51.39, 65.24 26.71, 32.21 -2 M122.02 76.07 C93.8 51.54, 65.58 27, 32.21 -2 M127.67 75.68 C102.47 53.77, 77.26 31.86, 38.61 -1.74 M127.67 75.68 C103.47 54.65, 79.28 33.61, 38.61 -1.74 M134.06 75.94 C102.28 48.31, 70.49 20.68, 44.25 -2.13 M134.06 75.94 C103.62 49.48, 73.18 23.01, 44.25 -2.13 M140.46 76.2 C111.61 51.12, 82.76 26.04, 50.65 -1.87 M140.46 76.2 C106.44 46.63, 72.43 17.06, 50.65 -1.87 M146.11 75.81 C123.5 56.16, 100.9 36.51, 56.29 -2.27 M146.11 75.81 C122.72 55.47, 99.33 35.14, 56.29 -2.27 M152.5 76.07 C132.36 58.56, 112.22 41.05, 62.69 -2 M152.5 76.07 C123.55 50.9, 94.6 25.74, 62.69 -2 M158.15 75.67 C134.32 54.96, 110.49 34.25, 69.09 -1.74 M158.15 75.67 C137.25 57.51, 116.36 39.35, 69.09 -1.74 M164.54 75.93 C137.85 52.73, 111.16 29.53, 74.73 -2.14 M164.54 75.93 C141.06 55.52, 117.58 35.11, 74.73 -2.14 M169.43 74.88 C147.06 55.43, 124.68 35.98, 81.13 -1.88 M169.43 74.88 C140.85 50.03, 112.26 25.19, 81.13 -1.88 M169.79 69.9 C149.98 52.68, 130.18 35.46, 86.77 -2.27 M169.79 69.9 C148.09 51.03, 126.38 32.16, 86.77 -2.27 M169.4 64.25 C149.98 47.37, 130.56 30.49, 93.17 -2.01 M169.4 64.25 C146.82 44.62, 124.24 25, 93.17 -2.01 M169.76 59.27 C145.82 38.46, 121.88 17.65, 99.57 -1.75 M169.76 59.27 C149.13 41.33, 128.5 23.4, 99.57 -1.75 M169.36 53.62 C149.41 36.28, 129.45 18.93, 105.21 -2.14 M169.36 53.62 C154.81 40.97, 140.26 28.32, 105.21 -2.14 M169.72 48.64 C152.83 33.95, 135.93 19.26, 111.61 -1.88 M169.72 48.64 C155.97 36.68, 142.22 24.73, 111.61 -1.88 M170.08 43.65 C156.59 31.92, 143.1 20.19, 117.25 -2.27 M170.08 43.65 C154.42 30.03, 138.76 16.42, 117.25 -2.27 M169.69 38.01 C152.76 23.29, 135.84 8.58, 123.65 -2.01 M169.69 38.01 C157.09 27.05, 144.48 16.1, 123.65 -2.01 M170.05 33.02 C157.46 22.08, 144.88 11.14, 130.05 -1.75 M170.05 33.02 C154.35 19.37, 138.66 5.73, 130.05 -1.75 M169.65 27.38 C161.31 20.13, 152.98 12.88, 135.69 -2.15 M169.65 27.38 C159.62 18.65, 149.58 9.92, 135.69 -2.15 M170.01 22.39 C161.38 14.88, 152.74 7.37, 142.09 -1.89 M170.01 22.39 C161.41 14.91, 152.81 7.43, 142.09 -1.89 M169.62 16.75 C161.04 9.29, 152.47 1.83, 147.73 -2.28 M169.62 16.75 C163.08 11.06, 156.55 5.38, 147.73 -2.28 M169.98 11.76 C165.96 8.26, 161.93 4.76, 154.13 -2.02 M169.98 11.76 C164.54 7.03, 159.1 2.31, 154.13 -2.02 M169.59 6.12 C167.16 4.01, 164.73 1.9, 160.53 -1.76 M169.59 6.12 C166.09 3.08, 162.6 0.04, 160.53 -1.76 M169.95 1.13 C168.6 -0.04, 167.26 -1.21, 166.17 -2.15 M169.95 1.13 C168.8 0.13, 167.65 -0.86, 166.17 -2.15" stroke="#82c91e" stroke-width="0.5" fill="none"></path><path d="M0 0 C58.38 0, 116.77 0, 169 0 M0 0 C45.92 0, 91.85 0, 169 0 M169 0 C169 20.92, 169 41.84, 169 76 M169 0 C169 30.3, 169 60.61, 169 76 M169 76 C132.69 76, 96.38 76, 0 76 M169 76 C107.86 76, 46.72 76, 0 76 M0 76 C0 55.41, 0 34.82, 0 0 M0 76 C0 52.99, 0 29.97, 0 0" stroke="#000000" stroke-width="1" fill="none"></path></g><g transform="translate(481 400.865234375) rotate(0 79.5 25)"><text x="79.5" y="18" font-family="Virgil, Segoe UI Emoji" font-size="20px" fill="#000000" text-anchor="middle" style="white-space: pre;" direction="ltr">Terraform Plan</text><text x="79.5" y="43" font-family="Virgil, Segoe UI Emoji" font-size="20px" fill="#000000" text-anchor="middle" style="white-space: pre;" direction="ltr">Task</text></g><g stroke-linecap="round" transform="translate(704 387.865234375) rotate(0 84.5 38)"><path d="M0 0 C0 0, 0 0, 0 0 M0 0 C0 0, 0 0, 0 0 M-0.26 6.4 C1.21 4.7, 2.69 3, 4.99 0.36 M-0.26 6.4 C1.6 4.26, 3.46 2.11, 4.99 0.36 M0.13 12.04 C2.9 8.86, 5.67 5.68, 10.63 -0.03 M0.13 12.04 C2.4 9.44, 4.66 6.84, 10.63 -0.03 M-0.13 18.44 C3.3 14.5, 6.72 10.56, 15.62 0.33 M-0.13 18.44 C5.74 11.69, 11.61 4.94, 15.62 0.33 M0.27 24.08 C8.12 15.05, 15.96 6.02, 21.26 -0.07 M0.27 24.08 C4.6 19.09, 8.94 14.11, 21.26 -0.07 M0 30.48 C5.93 23.66, 11.86 16.85, 26.25 0.29 M0 30.48 C8.31 20.92, 16.62 11.37, 26.25 0.29 M-0.26 36.88 C8.29 27.05, 16.83 17.22, 31.89 -0.1 M-0.26 36.88 C12.08 22.69, 24.41 8.5, 31.89 -0.1 M0.14 42.52 C12.03 28.84, 23.92 15.16, 36.88 0.26 M0.14 42.52 C8.7 32.67, 17.27 22.81, 36.88 0.26 M-0.12 48.92 C12.83 34.02, 25.78 19.12, 42.52 -0.14 M-0.12 48.92 C12.53 34.36, 25.18 19.81, 42.52 -0.14 M0.27 54.56 C15.5 37.05, 30.72 19.53, 47.51 0.22 M0.27 54.56 C13.27 39.6, 26.28 24.65, 47.51 0.22 M0.01 60.96 C13.06 45.94, 26.11 30.93, 53.15 -0.17 M0.01 60.96 C10.72 48.64, 21.42 36.33, 53.15 -0.17 M-0.25 67.36 C12.99 52.13, 26.23 36.9, 58.14 0.19 M-0.25 67.36 C17.38 47.07, 35.01 26.79, 58.14 0.19 M0.14 73 C15.63 55.18, 31.13 37.36, 63.78 -0.21 M0.14 73 C16.7 53.95, 33.26 34.9, 63.78 -0.21 M1.85 77.13 C17.62 59, 33.38 40.86, 68.77 0.15 M1.85 77.13 C20.5 55.68, 39.15 34.23, 68.77 0.15 M6.84 77.49 C23.24 58.62, 39.64 39.75, 74.41 -0.24 M6.84 77.49 C29.91 50.95, 52.98 24.41, 74.41 -0.24 M12.48 77.1 C35.33 50.81, 58.18 24.53, 79.4 0.12 M12.48 77.1 C31.01 55.79, 49.53 34.47, 79.4 0.12 M17.47 77.46 C43.34 47.69, 69.22 17.93, 85.04 -0.28 M17.47 77.46 C32.32 60.37, 47.18 43.28, 85.04 -0.28 M23.11 77.06 C45.22 51.62, 67.34 26.18, 90.03 0.08 M23.11 77.06 C41.47 55.94, 59.84 34.82, 90.03 0.08 M28.1 77.42 C54.93 46.56, 81.76 15.7, 95.67 -0.31 M28.1 77.42 C53.53 48.17, 78.96 18.92, 95.67 -0.31 M33.74 77.03 C59.35 47.57, 84.96 18.11, 100.66 0.05 M33.74 77.03 C57.52 49.67, 81.31 22.31, 100.66 0.05 M38.73 77.39 C53.05 60.91, 67.38 44.43, 106.3 -0.34 M38.73 77.39 C65.63 46.44, 92.53 15.49, 106.3 -0.34 M43.71 77.75 C62.08 56.62, 80.44 35.5, 111.29 0.02 M43.71 77.75 C64.67 53.64, 85.63 29.53, 111.29 0.02 M49.36 77.36 C72.67 50.54, 95.98 23.72, 116.27 0.38 M49.36 77.36 C74.7 48.2, 100.05 19.05, 116.27 0.38 M54.34 77.72 C79.03 49.32, 103.71 20.93, 121.92 -0.02 M54.34 77.72 C70.24 59.43, 86.14 41.14, 121.92 -0.02 M59.99 77.32 C81.43 52.65, 102.88 27.98, 126.91 0.34 M59.99 77.32 C81.25 52.86, 102.52 28.39, 126.91 0.34 M64.97 77.68 C80.13 60.24, 95.29 42.8, 132.55 -0.05 M64.97 77.68 C87.51 51.75, 110.05 25.82, 132.55 -0.05 M70.62 77.29 C86.45 59.08, 102.27 40.87, 137.54 0.31 M70.62 77.29 C92.12 52.55, 113.62 27.81, 137.54 0.31 M75.6 77.65 C89.39 61.79, 103.18 45.93, 143.18 -0.09 M75.6 77.65 C96.83 53.23, 118.06 28.81, 143.18 -0.09 M81.25 77.25 C107.9 46.59, 134.55 15.93, 148.17 0.27 M81.25 77.25 C94.73 61.74, 108.22 46.23, 148.17 0.27 M86.23 77.61 C103.33 57.94, 120.43 38.28, 153.81 -0.12 M86.23 77.61 C112.74 47.12, 139.25 16.63, 153.81 -0.12 M91.88 77.22 C112.05 54.01, 132.22 30.81, 158.8 0.24 M91.88 77.22 C110.4 55.91, 128.92 34.6, 158.8 0.24 M96.86 77.58 C118.07 53.18, 139.28 28.79, 164.44 -0.16 M96.86 77.58 C116.43 55.07, 136 32.55, 164.44 -0.16 M102.51 77.18 C118.25 59.08, 133.99 40.97, 169.43 0.2 M102.51 77.18 C127.39 48.56, 152.28 19.93, 169.43 0.2 M107.49 77.54 C127.39 54.65, 147.29 31.76, 169.16 6.6 M107.49 77.54 C121.92 60.95, 136.35 44.35, 169.16 6.6 M113.14 77.15 C129.1 58.79, 145.05 40.43, 169.56 12.24 M113.14 77.15 C125.42 63.02, 137.71 48.88, 169.56 12.24 M118.12 77.51 C128.85 65.17, 139.57 52.84, 169.3 18.64 M118.12 77.51 C136.51 56.35, 154.9 35.2, 169.3 18.64 M123.77 77.11 C138.3 60.39, 152.84 43.67, 169.04 25.04 M123.77 77.11 C135.16 64.01, 146.54 50.91, 169.04 25.04 M128.75 77.47 C140.88 63.52, 153.01 49.58, 169.43 30.68 M128.75 77.47 C141.21 63.15, 153.67 48.82, 169.43 30.68 M134.4 77.08 C142.07 68.25, 149.74 59.43, 169.17 37.08 M134.4 77.08 C141.94 68.41, 149.48 59.73, 169.17 37.08 M139.38 77.44 C148.62 66.82, 157.85 56.2, 169.56 42.72 M139.38 77.44 C146.06 69.76, 152.73 62.09, 169.56 42.72 M145.03 77.05 C150.99 70.18, 156.96 63.32, 169.3 49.12 M145.03 77.05 C153.85 66.9, 162.66 56.76, 169.3 49.12 M150.01 77.41 C156.56 69.87, 163.11 62.34, 169.04 55.52 M150.01 77.41 C156.8 69.6, 163.59 61.79, 169.04 55.52 M155 77.77 C158.68 73.54, 162.35 69.31, 169.44 61.16 M155 77.77 C158.56 73.67, 162.13 69.57, 169.44 61.16 M160.64 77.37 C163.36 74.25, 166.07 71.13, 169.17 67.56 M160.64 77.37 C162.97 74.7, 165.29 72.03, 169.17 67.56 M165.63 77.73 C166.81 76.38, 167.99 75.02, 169.57 73.2 M165.63 77.73 C166.93 76.24, 168.23 74.75, 169.57 73.2 M0.11 76.09 C0.11 76.09, 0.11 76.09, 0.11 76.09 M0.11 76.09 C0.11 76.09, 0.11 76.09, 0.11 76.09 M5.75 75.7 C4.39 74.52, 3.03 73.34, -0.29 70.45 M5.75 75.7 C3.45 73.7, 1.16 71.71, -0.29 70.45 M12.15 75.96 C9 73.23, 5.86 70.49, 0.07 65.46 M12.15 75.96 C9.6 73.74, 7.05 71.53, 0.07 65.46 M18.54 76.22 C13.43 71.77, 8.32 67.33, -0.32 59.82 M18.54 76.22 C13.39 71.74, 8.23 67.26, -0.32 59.82 M24.19 75.83 C19.17 71.46, 14.15 67.1, 0.04 54.83 M24.19 75.83 C17.34 69.88, 10.5 63.93, 0.04 54.83 M30.58 76.09 C22.2 68.8, 13.82 61.51, -0.36 49.19 M30.58 76.09 C18.53 65.6, 6.47 55.12, -0.36 49.19 M36.23 75.69 C27.24 67.88, 18.26 60.07, 0 44.2 M36.23 75.69 C27.73 68.31, 19.24 60.92, 0 44.2 M42.63 75.95 C32.01 66.72, 21.39 57.49, 0.36 39.21 M42.63 75.95 C33.46 67.99, 24.3 60.02, 0.36 39.21 M49.02 76.22 C36.52 65.35, 24.02 54.48, -0.03 33.57 M49.02 76.22 C31.62 61.09, 14.22 45.96, -0.03 33.57 M54.67 75.82 C42.02 64.83, 29.38 53.84, 0.33 28.58 M54.67 75.82 C35.75 59.38, 16.84 42.94, 0.33 28.58 M61.06 76.08 C42.98 60.37, 24.91 44.65, -0.07 22.94 M61.06 76.08 C46.35 63.3, 31.65 50.51, -0.07 22.94 M66.71 75.69 C51.46 62.43, 36.21 49.18, 0.29 17.95 M66.71 75.69 C47.91 59.35, 29.11 43.01, 0.29 17.95 M73.11 75.95 C56.12 61.19, 39.14 46.43, -0.1 12.31 M73.11 75.95 C44.19 50.81, 15.27 25.68, -0.1 12.31 M79.5 76.21 C59.68 58.98, 39.86 41.75, 0.26 7.32 M79.5 76.21 C61.45 60.52, 43.4 44.83, 0.26 7.32 M85.15 75.82 C57.99 52.21, 30.83 28.6, -0.14 1.68 M85.15 75.82 C65.79 58.99, 46.44 42.17, -0.14 1.68 M91.54 76.08 C64.96 52.97, 38.37 29.86, 1.73 -1.99 M91.54 76.08 C65.09 53.08, 38.64 30.09, 1.73 -1.99 M97.19 75.68 C79.02 59.89, 60.86 44.1, 8.13 -1.73 M97.19 75.68 C74.76 56.19, 52.34 36.7, 8.13 -1.73 M103.58 75.94 C70.99 47.61, 38.39 19.27, 13.77 -2.13 M103.58 75.94 C76.49 52.39, 49.4 28.84, 13.77 -2.13 M109.98 76.21 C80.26 50.37, 50.54 24.53, 20.17 -1.87 M109.98 76.21 C83.84 53.48, 57.69 30.75, 20.17 -1.87 M115.63 75.81 C94.04 57.05, 72.46 38.29, 25.82 -2.26 M115.63 75.81 C82.04 46.62, 48.46 17.43, 25.82 -2.26 M122.02 76.07 C91.88 49.87, 61.73 23.66, 32.21 -2 M122.02 76.07 C97.52 54.77, 73.02 33.48, 32.21 -2 M127.67 75.68 C99.96 51.59, 72.25 27.5, 38.61 -1.74 M127.67 75.68 C97.19 49.18, 66.71 22.68, 38.61 -1.74 M134.06 75.94 C111.78 56.57, 89.51 37.2, 44.25 -2.13 M134.06 75.94 C113.33 57.91, 92.59 39.89, 44.25 -2.13 M140.46 76.2 C108.82 48.69, 77.18 21.19, 50.65 -1.87 M140.46 76.2 C109.58 49.35, 78.69 22.5, 50.65 -1.87 M146.11 75.81 C119.89 53.02, 93.67 30.23, 56.29 -2.27 M146.11 75.81 C118.65 51.94, 91.2 28.07, 56.29 -2.27 M152.5 76.07 C122.46 49.96, 92.43 23.84, 62.69 -2 M152.5 76.07 C132.54 58.71, 112.58 41.36, 62.69 -2 M158.15 75.67 C132.79 53.63, 107.44 31.6, 69.09 -1.74 M158.15 75.67 C127.53 49.06, 96.91 22.44, 69.09 -1.74 M164.54 75.93 C144.61 58.61, 124.69 41.29, 74.73 -2.14 M164.54 75.93 C135.16 50.4, 105.79 24.86, 74.73 -2.14 M169.43 74.88 C148.45 56.65, 127.48 38.41, 81.13 -1.88 M169.43 74.88 C143.11 52, 116.78 29.12, 81.13 -1.88 M169.79 69.9 C138.85 43, 107.9 16.1, 86.77 -2.27 M169.79 69.9 C143.69 47.21, 117.59 24.52, 86.77 -2.27 M169.4 64.25 C142.29 40.69, 115.19 17.13, 93.17 -2.01 M169.4 64.25 C152.05 49.17, 134.69 34.09, 93.17 -2.01 M169.76 59.27 C145.97 38.59, 122.19 17.91, 99.57 -1.75 M169.76 59.27 C145.46 38.14, 121.15 17.02, 99.57 -1.75 M169.36 53.62 C154.13 40.38, 138.89 27.14, 105.21 -2.14 M169.36 53.62 C150.26 37.02, 131.17 20.42, 105.21 -2.14 M169.72 48.64 C154.27 35.21, 138.82 21.77, 111.61 -1.88 M169.72 48.64 C152.8 33.93, 135.88 19.22, 111.61 -1.88 M170.08 43.65 C155.52 30.99, 140.95 18.33, 117.25 -2.27 M170.08 43.65 C150.01 26.2, 129.94 8.75, 117.25 -2.27 M169.69 38.01 C156.19 26.28, 142.7 14.55, 123.65 -2.01 M169.69 38.01 C154.78 25.04, 139.86 12.08, 123.65 -2.01 M170.05 33.02 C159.79 24.1, 149.53 15.18, 130.05 -1.75 M170.05 33.02 C159.96 24.25, 149.88 15.48, 130.05 -1.75 M169.65 27.38 C157.64 16.93, 145.63 6.49, 135.69 -2.15 M169.65 27.38 C158.6 17.77, 147.55 8.16, 135.69 -2.15 M170.01 22.39 C159.97 13.66, 149.92 4.92, 142.09 -1.89 M170.01 22.39 C158.89 12.72, 147.76 3.05, 142.09 -1.89 M169.62 16.75 C161.42 9.62, 153.23 2.5, 147.73 -2.28 M169.62 16.75 C163.43 11.37, 157.24 5.99, 147.73 -2.28 M169.98 11.76 C164.28 6.81, 158.59 1.86, 154.13 -2.02 M169.98 11.76 C166.67 8.88, 163.35 6, 154.13 -2.02 M169.59 6.12 C167.09 3.94, 164.59 1.77, 160.53 -1.76 M169.59 6.12 C166.96 3.84, 164.34 1.56, 160.53 -1.76 M169.95 1.13 C169.1 0.4, 168.26 -0.33, 166.17 -2.15 M169.95 1.13 C168.51 -0.12, 167.07 -1.37, 166.17 -2.15" stroke="#82c91e" stroke-width="0.5" fill="none"></path><path d="M0 0 C48.09 0, 96.18 0, 169 0 M0 0 C43.22 0, 86.45 0, 169 0 M169 0 C169 24.59, 169 49.18, 169 76 M169 0 C169 18.43, 169 36.86, 169 76 M169 76 C118.5 76, 67.99 76, 0 76 M169 76 C114.21 76, 59.43 76, 0 76 M0 76 C0 46.12, 0 16.23, 0 0 M0 76 C0 51.47, 0 26.93, 0 0" stroke="#000000" stroke-width="1" fill="none"></path></g><g transform="translate(709 400.865234375) rotate(0 79.5 25)"><text x="79.5" y="18" font-family="Virgil, Segoe UI Emoji" font-size="20px" fill="#000000" text-anchor="middle" style="white-space: pre;" direction="ltr">Terraform Apply</text><text x="79.5" y="43" font-family="Virgil, Segoe UI Emoji" font-size="20px" fill="#000000" text-anchor="middle" style="white-space: pre;" direction="ltr">Task</text></g><g stroke-linecap="round"><g transform="translate(433 423.9040684077569) rotate(0 21.5 -0.03883403275688124)"><path d="M0 0 C7.17 -0.01, 35.83 -0.06, 43 -0.08 M0 0 C7.17 -0.01, 35.83 -0.06, 43 -0.08" stroke="#000000" stroke-width="4" fill="none"></path></g><g transform="translate(433 423.9040684077569) rotate(0 21.5 -0.03883403275688124)"><path d="M22.81 7.31 C27.37 5.64, 31.93 3.97, 43 -0.08 M22.81 7.31 C27.79 5.49, 32.76 3.67, 43 -0.08" stroke="#000000" stroke-width="4" fill="none"></path></g><g transform="translate(433 423.9040684077569) rotate(0 21.5 -0.03883403275688124)"><path d="M22.78 -7.39 C27.35 -5.74, 31.91 -4.09, 43 -0.08 M22.78 -7.39 C27.77 -5.59, 32.75 -3.79, 43 -0.08" stroke="#000000" stroke-width="4" fill="none"></path></g></g><g stroke-linecap="round"><g transform="translate(651 425.9040684077569) rotate(0 21.5 -0.03883403275688124)"><path d="M0 0 C7.17 -0.01, 35.83 -0.06, 43 -0.08 M0 0 C7.17 -0.01, 35.83 -0.06, 43 -0.08" stroke="#000000" stroke-width="4" fill="none"></path></g><g transform="translate(651 425.9040684077569) rotate(0 21.5 -0.03883403275688124)"><path d="M22.81 7.31 C29.99 4.69, 37.16 2.06, 43 -0.08 M22.81 7.31 C27.09 5.75, 31.37 4.18, 43 -0.08" stroke="#000000" stroke-width="4" fill="none"></path></g><g transform="translate(651 425.9040684077569) rotate(0 21.5 -0.03883403275688124)"><path d="M22.78 -7.39 C29.97 -4.79, 37.15 -2.19, 43 -0.08 M22.78 -7.39 C27.07 -5.84, 31.35 -4.29, 43 -0.08" stroke="#000000" stroke-width="4" fill="none"></path></g></g><g transform="translate(377.5 26.865234375) rotate(0 253.5 37.5)"><text x="0" y="18" font-family="Virgil, Segoe UI Emoji" font-size="20px" fill="#343a40" text-anchor="start" style="white-space: pre;" direction="ltr">A plugin named "monitor" is configured to run </text><text x="0" y="43" font-family="Virgil, Segoe UI Emoji" font-size="20px" fill="#343a40" text-anchor="start" style="white-space: pre;" direction="ltr">after init. The controller will wait until the "When" </text><text x="0" y="68" font-family="Virgil, Segoe UI Emoji" font-size="20px" fill="#343a40" text-anchor="start" style="white-space: pre;" direction="ltr">condition is met and then schedule the plugin pod. </text></g><g stroke-linecap="round"><g transform="translate(310.5 28.94033369097332) rotate(0 28.064878778159596 0.1383818645535655)"><path d="M-0.41 1.07 C9.11 1.11, 46.98 1.09, 56.53 0.87 M1.58 0.58 C11.03 0.24, 46.69 -0.86, 55.87 -0.81" stroke="#495057" stroke-width="1" fill="none"></path></g><g transform="translate(310.5 28.94033369097332) rotate(0 28.064878778159596 0.1383818645535655)"><path d="M57.43 14.86 C57.04 11.54, 55.57 7.55, 54.83 -2.11 M56.14 13.46 C56.36 9.35, 55.21 5.58, 55.78 -0.16" stroke="#495057" stroke-width="1" fill="none"></path></g><g transform="translate(310.5 28.94033369097332) rotate(0 28.064878778159596 0.1383818645535655)"><path d="M56.98 -15.13 C56.85 -10.81, 55.51 -7.15, 54.83 -2.11 M55.69 -16.53 C56.07 -11.42, 55.05 -5.96, 55.78 -0.16" stroke="#495057" stroke-width="1" fill="none"></path></g></g><g transform="translate(538.5 131.865234375) rotate(0 171.5 25)"><text x="0" y="18" font-family="Virgil, Segoe UI Emoji" font-size="20px" fill="#343a40" text-anchor="start" style="white-space: pre;" direction="ltr">The "monitor" plugin is scheduled</text><text x="0" y="43" font-family="Virgil, Segoe UI Emoji" font-size="20px" fill="#343a40" text-anchor="start" style="white-space: pre;" direction="ltr">but not watched by the controller.</text></g><g transform="translate(157.5 251.865234375) rotate(0 143 62.5)"><text x="0" y="18" font-family="Virgil, Segoe UI Emoji" font-size="20px" fill="#343a40" text-anchor="start" style="white-space: pre;" direction="ltr">The plugin will be removed</text><text x="0" y="43" font-family="Virgil, Segoe UI Emoji" font-size="20px" fill="#343a40" text-anchor="start" style="white-space: pre;" direction="ltr">and recreated if the tfo </text><text x="0" y="68" font-family="Virgil, Segoe UI Emoji" font-size="20px" fill="#343a40" text-anchor="start" style="white-space: pre;" direction="ltr">k8s resource is modified, </text><text x="0" y="93" font-family="Virgil, Segoe UI Emoji" font-size="20px" fill="#343a40" text-anchor="start" style="white-space: pre;" direction="ltr">therefore it has the same</text><text x="0" y="118" font-family="Virgil, Segoe UI Emoji" font-size="20px" fill="#343a40" text-anchor="start" style="white-space: pre;" direction="ltr">lifecycle as any other task. </text></g><g stroke-linecap="round"><g transform="translate(51.5 265.865234375) rotate(0 -2.4415451486688085 54.13738032185938)"><path d="M-1.19 0.93 C-2.04 18.98, -4.1 90.28, -4.56 107.91 M0.39 0.37 C-0.63 18.13, -4.52 88.35, -5.27 106.26" stroke="#343a40" stroke-width="1" fill="none"></path></g><g transform="translate(51.5 265.865234375) rotate(0 -2.4415451486688085 54.13738032185938)"><path d="M-5.71 104.63 L-11.29 92.78 L1.05 93.73 L-4.29 106.66" stroke="none" stroke-width="0" fill="#343a40" fill-rule="evenodd"></path><path d="M-4.11 106.81 C-6.04 102.75, -9.54 96.61, -12.15 92.79 M-5.62 105.91 C-6.29 101.6, -8.53 97.52, -11.32 92.66 M-10.43 92.38 C-8.28 92.07, -3.82 94, 0.75 93.06 M-10.56 92.01 C-6.32 92.07, -1.23 92.26, 1.96 92.37 M2.94 93.53 C-1.28 96.96, -3.74 101.52, -3.99 107.42 M1.29 92.81 C-0.39 97.87, -3.51 100.97, -5.46 106.62 M-5.27 106.26 C-5.27 106.26, -5.27 106.26, -5.27 106.26 M-5.27 106.26 C-5.27 106.26, -5.27 106.26, -5.27 106.26" stroke="#343a40" stroke-width="1" fill="none"></path></g></g></svg>